<svg xmlns="http://www.w3.org/2000/svg" viewBox="0 0 470 240" width="470" height="240" style="background:#fff"><style>
.grid{stroke:#D6DBD8;stroke-width:1}.axis{stroke:#5C6664;stroke-width:1}.ax{font-family:'IBM Plex Mono',Menlo,monospace;font-size:11px;fill:#5C6664}.ax.sub{font-size:10px}.axlabel{font-family:'IBM Plex Mono',Menlo,monospace;font-size:11px;fill:#5C6664}
.val{font-family:'IBM Plex Mono',Menlo,monospace;font-size:10.5px;fill:#1B1F1E}.rowlab{font-family:'IBM Plex Sans',Helvetica,Arial,sans-serif;font-size:12.5px;fill:#1B1F1E}.rowlab.prod{font-weight:600}.rowlab.base{fill:#5C6664}
.ctitle{font-family:'IBM Plex Sans',Helvetica,Arial,sans-serif;font-size:12.5px;font-weight:600;fill:#1B1F1E}.marker{stroke:#B5443A;stroke-width:1;stroke-dasharray:3 3}.marker-text{fill:#B5443A}.band{fill:rgba(36,87,166,.07)}
.s-train{fill:#2457A6}.s-dev{fill:#C98B1F}.s-test{fill:#3E7D6E}.s-before{fill:#A9B2AE}.s-pseudo{fill:#7B8FB8}
.line{stroke-width:1.8;fill:none}.line.s1{stroke:#2457A6}.line.s2{stroke:#C98B1F}.line.s3{stroke:#3E7D6E}.line.s4{stroke:#B5443A}.line.s5{stroke:#6B4FA3}.line.s6{stroke:#2A8A99}
.dot.s1{fill:#2457A6}.dot.s2{fill:#C98B1F}.dot.s3{fill:#3E7D6E}.dot.s4{fill:#B5443A}.dot.s5{fill:#6B4FA3}.dot.s6{fill:#2A8A99}
</style><rect x="0" y="0" width="470" height="240" fill="#ffffff"/>
<line x1="52" x2="458" y1="196.0" y2="196.0" class="grid"/><text x="46" y="200.0" class="ax" text-anchor="end">0</text>
<line x1="52" x2="458" y1="136.0" y2="136.0" class="grid"/><text x="46" y="140.0" class="ax" text-anchor="end">2,000</text>
<line x1="52" x2="458" y1="76.0" y2="76.0" class="grid"/><text x="46" y="80.0" class="ax" text-anchor="end">4,000</text>
<line x1="52" x2="458" y1="16.0" y2="16.0" class="grid"/><text x="46" y="20.0" class="ax" text-anchor="end">6,000</text>
<rect x="52.5" y="194.7" width="27.5" height="1.3" class="s-train"><title>0–2: 43 clips</title></rect>
<rect x="81.0" y="189.7" width="27.5" height="6.3" class="s-train"><title>2–4: 210 clips</title></rect>
<rect x="109.5" y="183.0" width="27.5" height="13.0" class="s-train"><title>4–6: 432 clips</title></rect>
<rect x="138.0" y="176.2" width="27.5" height="19.8" class="s-train"><title>6–8: 660 clips</title></rect>
<rect x="166.5" y="167.6" width="27.5" height="28.4" class="s-train"><title>8–10: 946 clips</title></rect>
<rect x="195.0" y="156.2" width="27.5" height="39.8" class="s-train"><title>10–12: 1,327 clips</title></rect>
<rect x="223.4" y="143.1" width="27.5" height="52.9" class="s-train"><title>12–14: 1,763 clips</title></rect>
<rect x="251.9" y="131.0" width="27.5" height="65.0" class="s-train"><title>14–16: 2,167 clips</title></rect>
<rect x="280.4" y="121.2" width="27.5" height="74.8" class="s-train"><title>16–18: 2,495 clips</title></rect>
<rect x="308.9" y="106.2" width="27.5" height="89.8" class="s-train"><title>18–20: 2,992 clips</title></rect>
<rect x="337.4" y="94.4" width="27.5" height="101.6" class="s-train"><title>20–22: 3,385 clips</title></rect>
<rect x="365.9" y="77.0" width="27.5" height="119.0" class="s-train"><title>22–24: 3,967 clips</title></rect>
<rect x="394.4" y="53.7" width="27.5" height="142.3" class="s-train"><title>24–26: 4,744 clips</title></rect>
<rect x="422.9" y="43.6" width="34.6" height="152.4" class="s-train"><title>26–28: 5,081 clips</title></rect>
<text x="52.0" y="212" class="ax" text-anchor="middle">0</text>
<text x="80.5" y="212" class="ax" text-anchor="middle">2</text>
<text x="109.0" y="212" class="ax" text-anchor="middle">4</text>
<text x="137.5" y="212" class="ax" text-anchor="middle">6</text>
<text x="166.0" y="212" class="ax" text-anchor="middle">8</text>
<text x="194.5" y="212" class="ax" text-anchor="middle">10</text>
<text x="222.9" y="212" class="ax" text-anchor="middle">12</text>
<text x="251.4" y="212" class="ax" text-anchor="middle">14</text>
<text x="279.9" y="212" class="ax" text-anchor="middle">16</text>
<text x="308.4" y="212" class="ax" text-anchor="middle">18</text>
<text x="336.9" y="212" class="ax" text-anchor="middle">20</text>
<text x="365.4" y="212" class="ax" text-anchor="middle">22</text>
<text x="393.9" y="212" class="ax" text-anchor="middle">24</text>
<text x="422.4" y="212" class="ax" text-anchor="middle">26</text>
<text x="458.0" y="212" class="ax" text-anchor="middle">28</text>
<line x1="52" x2="458" y1="196.0" y2="196.0" class="axis"/><text x="458" y="230" class="axlabel" text-anchor="end">clip duration (s)</text><text x="52" y="12" class="axlabel">clips</text></svg>