<svg xmlns="http://www.w3.org/2000/svg" viewBox="0 0 320 250" width="320" height="250" style="background:#fff"><style>
.grid{stroke:#D6DBD8;stroke-width:1}.axis{stroke:#5C6664;stroke-width:1}.ax{font-family:'IBM Plex Mono',Menlo,monospace;font-size:11px;fill:#5C6664}.ax.sub{font-size:10px}.axlabel{font-family:'IBM Plex Mono',Menlo,monospace;font-size:11px;fill:#5C6664}
.val{font-family:'IBM Plex Mono',Menlo,monospace;font-size:10.5px;fill:#1B1F1E}.rowlab{font-family:'IBM Plex Sans',Helvetica,Arial,sans-serif;font-size:12.5px;fill:#1B1F1E}.rowlab.prod{font-weight:600}.rowlab.base{fill:#5C6664}
.ctitle{font-family:'IBM Plex Sans',Helvetica,Arial,sans-serif;font-size:12.5px;font-weight:600;fill:#1B1F1E}.marker{stroke:#B5443A;stroke-width:1;stroke-dasharray:3 3}.marker-text{fill:#B5443A}.band{fill:rgba(36,87,166,.07)}
.s-train{fill:#2457A6}.s-dev{fill:#C98B1F}.s-test{fill:#3E7D6E}.s-before{fill:#A9B2AE}.s-pseudo{fill:#7B8FB8}
.line{stroke-width:1.8;fill:none}.line.s1{stroke:#2457A6}.line.s2{stroke:#C98B1F}.line.s3{stroke:#3E7D6E}.line.s4{stroke:#B5443A}.line.s5{stroke:#6B4FA3}.line.s6{stroke:#2A8A99}
.dot.s1{fill:#2457A6}.dot.s2{fill:#C98B1F}.dot.s3{fill:#3E7D6E}.dot.s4{fill:#B5443A}.dot.s5{fill:#6B4FA3}.dot.s6{fill:#2A8A99}
</style><rect x="0" y="0" width="320" height="250" fill="#ffffff"/>
<text x="46" y="14" class="ctitle">v3 · self-training, complete (2026-09-21 to 22)</text>
<line x1="46" x2="310" y1="210.0" y2="210.0" class="grid"/><text x="40" y="214.0" class="ax" text-anchor="end">0.06</text>
<line x1="46" x2="310" y1="174.0" y2="174.0" class="grid"/><text x="40" y="178.0" class="ax" text-anchor="end">0.08</text>
<line x1="46" x2="310" y1="138.0" y2="138.0" class="grid"/><text x="40" y="142.0" class="ax" text-anchor="end">0.09</text>
<line x1="46" x2="310" y1="102.0" y2="102.0" class="grid"/><text x="40" y="106.0" class="ax" text-anchor="end">0.11</text>
<line x1="46" x2="310" y1="66.0" y2="66.0" class="grid"/><text x="40" y="70.0" class="ax" text-anchor="end">0.12</text>
<line x1="46" x2="310" y1="30.0" y2="30.0" class="grid"/><text x="40" y="34.0" class="ax" text-anchor="end">0.14</text>
<text x="46.0" y="226" class="ax" text-anchor="middle">0</text>
<text x="121.4" y="226" class="ax" text-anchor="middle">1000</text>
<text x="196.9" y="226" class="ax" text-anchor="middle">2000</text>
<text x="272.3" y="226" class="ax" text-anchor="middle">3000</text>
<text x="310" y="242" class="axlabel" text-anchor="end">optimizer step</text>
<line x1="46" x2="310" y1="172.9" y2="172.9" class="marker"/><text x="50" y="184.9" class="ax marker-text">best v1 final 0.0765</text>
<path d="M83.7,164.4 L121.4,174.1 L159.1,172.1 L196.9,185.7 L234.6,172.7 L272.3,190.7 L303.5,185.7" class="line s1" style="stroke-dasharray:none" fill="none"><title>continue v1 lr 2e-5 on real + pseudo · lr 1e-5 · 2 ep</title></path>
<circle cx="83.7" cy="164.4" r="2.6" class="dot s1"><title>continue v1 lr 2e-5 on real + pseudo · lr 1e-5 · 2 ep step 500: 0.0803</title></circle>
<circle cx="121.4" cy="174.1" r="2.6" class="dot s1"><title>continue v1 lr 2e-5 on real + pseudo · lr 1e-5 · 2 ep step 1000: 0.0760</title></circle>
<circle cx="159.1" cy="172.1" r="2.6" class="dot s1"><title>continue v1 lr 2e-5 on real + pseudo · lr 1e-5 · 2 ep step 1500: 0.0768</title></circle>
<circle cx="196.9" cy="185.7" r="2.6" class="dot s1"><title>continue v1 lr 2e-5 on real + pseudo · lr 1e-5 · 2 ep step 2000: 0.0708</title></circle>
<circle cx="234.6" cy="172.7" r="2.6" class="dot s1"><title>continue v1 lr 2e-5 on real + pseudo · lr 1e-5 · 2 ep step 2500: 0.0766</title></circle>
<circle cx="272.3" cy="190.7" r="2.6" class="dot s1"><title>continue v1 lr 2e-5 on real + pseudo · lr 1e-5 · 2 ep step 3000: 0.0686</title></circle>
<circle cx="303.5" cy="185.7" r="2.6" class="dot s1"><title>continue v1 lr 2e-5 on real + pseudo · lr 1e-5 · 2 ep step 3414: 0.0708</title></circle>
<path d="M83.7,144.2 L121.4,132.0 L159.1,152.2 L196.9,173.2 L234.6,175.7 L272.3,185.4 L303.5,189.0" class="line s5" style="stroke-dasharray:none" fill="none"><title>continue v1 lr 1e-5 on real + pseudo · lr 1e-5 · 2 ep</title></path>
<circle cx="83.7" cy="144.2" r="2.6" class="dot s5"><title>continue v1 lr 1e-5 on real + pseudo · lr 1e-5 · 2 ep step 500: 0.0892</title></circle>
<circle cx="121.4" cy="132.0" r="2.6" class="dot s5"><title>continue v1 lr 1e-5 on real + pseudo · lr 1e-5 · 2 ep step 1000: 0.0946</title></circle>
<circle cx="159.1" cy="152.2" r="2.6" class="dot s5"><title>continue v1 lr 1e-5 on real + pseudo · lr 1e-5 · 2 ep step 1500: 0.0857</title></circle>
<circle cx="196.9" cy="173.2" r="2.6" class="dot s5"><title>continue v1 lr 1e-5 on real + pseudo · lr 1e-5 · 2 ep step 2000: 0.0763</title></circle>
<circle cx="234.6" cy="175.7" r="2.6" class="dot s5"><title>continue v1 lr 1e-5 on real + pseudo · lr 1e-5 · 2 ep step 2500: 0.0752</title></circle>
<circle cx="272.3" cy="185.4" r="2.6" class="dot s5"><title>continue v1 lr 1e-5 on real + pseudo · lr 1e-5 · 2 ep step 3000: 0.0709</title></circle>
<circle cx="303.5" cy="189.0" r="2.6" class="dot s5"><title>continue v1 lr 1e-5 on real + pseudo · lr 1e-5 · 2 ep step 3414: 0.0693</title></circle>
<path d="M83.7,45.8 L121.4,115.7 L159.1,87.2 L196.9,169.9 L234.6,173.5 L272.3,184.6 L303.5,190.7" class="line s6" style="stroke-dasharray:none" fill="none"><title>fresh turbo on real + pseudo · lr 2e-5 · 2 ep</title></path>
<circle cx="83.7" cy="45.8" r="2.6" class="dot s6"><title>fresh turbo on real + pseudo · lr 2e-5 · 2 ep step 500: 0.1330</title></circle>
<circle cx="121.4" cy="115.7" r="2.6" class="dot s6"><title>fresh turbo on real + pseudo · lr 2e-5 · 2 ep step 1000: 0.1019</title></circle>
<circle cx="159.1" cy="87.2" r="2.6" class="dot s6"><title>fresh turbo on real + pseudo · lr 2e-5 · 2 ep step 1500: 0.1146</title></circle>
<circle cx="196.9" cy="169.9" r="2.6" class="dot s6"><title>fresh turbo on real + pseudo · lr 2e-5 · 2 ep step 2000: 0.0778</title></circle>
<circle cx="234.6" cy="173.5" r="2.6" class="dot s6"><title>fresh turbo on real + pseudo · lr 2e-5 · 2 ep step 2500: 0.0762</title></circle>
<circle cx="272.3" cy="184.6" r="2.6" class="dot s6"><title>fresh turbo on real + pseudo · lr 2e-5 · 2 ep step 3000: 0.0713</title></circle>
<circle cx="303.5" cy="190.7" r="2.6" class="dot s6"><title>fresh turbo on real + pseudo · lr 2e-5 · 2 ep step 3414: 0.0686</title></circle>
<line x1="46" x2="310" y1="210" y2="210" class="axis"/></svg>